<svg width="100" height="100" viewBox="0 0 100 100" fill="none" xmlns="http://www.w3.org/2000/svg">
<path d="M22.5 37.5C22.5 36.1193 21.3807 35 20 35C18.6193 35 17.5 36.1193 17.5 37.5V62.5C17.5 63.8807 18.6193 65 20 65C21.3807 65 22.5 63.8807 22.5 62.5V37.5Z" fill="black"/>
<path d="M32.5 32.5C32.5 31.1193 31.3807 30 30 30C28.6193 30 27.5 31.1193 27.5 32.5V67.5C27.5 68.8807 28.6193 70 30 70C31.3807 70 32.5 68.8807 32.5 67.5V32.5Z" fill="black"/>
<path d="M42.5 40C42.5 38.6193 41.3807 37.5 40 37.5C38.6193 37.5 37.5 38.6193 37.5 40V60C37.5 61.3807 38.6193 62.5 40 62.5C41.3807 62.5 42.5 61.3807 42.5 60V40Z" fill="black"/>
<path d="M52.5 22.5C52.5 21.1193 51.3807 20 50 20C48.6193 20 47.5 21.1193 47.5 22.5V77.5C47.5 78.8807 48.6193 80 50 80C51.3807 80 52.5 78.8807 52.5 77.5V22.5Z" fill="black"/>
<path d="M62.5 40C62.5 38.6193 61.3807 37.5 60 37.5C58.6193 37.5 57.5 38.6193 57.5 40V60C57.5 61.3807 58.6193 62.5 60 62.5C61.3807 62.5 62.5 61.3807 62.5 60V40Z" fill="black"/>
<path d="M72.5 32.5C72.5 31.1193 71.3807 30 70 30C68.6193 30 67.5 31.1193 67.5 32.5V67.5C67.5 68.8807 68.6193 70 70 70C71.3807 70 72.5 68.8807 72.5 67.5V32.5Z" fill="black"/>
<path d="M82.5 37.5C82.5 36.1193 81.3807 35 80 35C78.6193 35 77.5 36.1193 77.5 37.5V62.5C77.5 63.8807 78.6193 65 80 65C81.3807 65 82.5 63.8807 82.5 62.5V37.5Z" fill="black"/>
</svg>
