<svg width="65" height="60" viewBox="0 0 65 60" fill="none" xmlns="http://www.w3.org/2000/svg">
<path d="M5 17.5C5 16.1193 3.88071 15 2.5 15C1.11929 15 0 16.1193 0 17.5V42.5C0 43.8807 1.11929 45 2.5 45C3.88071 45 5 43.8807 5 42.5V17.5Z" fill="black"/>
<path d="M15 12.5C15 11.1193 13.8807 10 12.5 10C11.1193 10 10 11.1193 10 12.5V47.5C10 48.8807 11.1193 50 12.5 50C13.8807 50 15 48.8807 15 47.5V12.5Z" fill="black"/>
<path d="M25 20C25 18.6193 23.8807 17.5 22.5 17.5C21.1193 17.5 20 18.6193 20 20V40C20 41.3807 21.1193 42.5 22.5 42.5C23.8807 42.5 25 41.3807 25 40V20Z" fill="black"/>
<path d="M35 2.5C35 1.11929 33.8807 0 32.5 0C31.1193 0 30 1.11929 30 2.5V57.5C30 58.8807 31.1193 60 32.5 60C33.8807 60 35 58.8807 35 57.5V2.5Z" fill="black"/>
<path d="M45 20C45 18.6193 43.8807 17.5 42.5 17.5C41.1193 17.5 40 18.6193 40 20V40C40 41.3807 41.1193 42.5 42.5 42.5C43.8807 42.5 45 41.3807 45 40V20Z" fill="black"/>
<path d="M55 12.5C55 11.1193 53.8807 10 52.5 10C51.1193 10 50 11.1193 50 12.5V47.5C50 48.8807 51.1193 50 52.5 50C53.8807 50 55 48.8807 55 47.5V12.5Z" fill="black"/>
<path d="M65 17.5C65 16.1193 63.8807 15 62.5 15C61.1193 15 60 16.1193 60 17.5V42.5C60 43.8807 61.1193 45 62.5 45C63.8807 45 65 43.8807 65 42.5V17.5Z" fill="black"/>
</svg>
