<svg width="100" height="100" viewBox="0 0 100 100" fill="none" xmlns="http://www.w3.org/2000/svg">
<circle cx="50" cy="50" r="50" fill="#FFC981"/>
<path d="M23 37.5C23 36.1193 21.8807 35 20.5 35C19.1193 35 18 36.1193 18 37.5V62.5C18 63.8807 19.1193 65 20.5 65C21.8807 65 23 63.8807 23 62.5V37.5Z" fill="black"/>
<path d="M33 32.5C33 31.1193 31.8807 30 30.5 30C29.1193 30 28 31.1193 28 32.5V67.5C28 68.8807 29.1193 70 30.5 70C31.8807 70 33 68.8807 33 67.5V32.5Z" fill="black"/>
<path d="M43 40C43 38.6193 41.8807 37.5 40.5 37.5C39.1193 37.5 38 38.6193 38 40V60C38 61.3807 39.1193 62.5 40.5 62.5C41.8807 62.5 43 61.3807 43 60V40Z" fill="black"/>
<path d="M53 22.5C53 21.1193 51.8807 20 50.5 20C49.1193 20 48 21.1193 48 22.5V77.5C48 78.8807 49.1193 80 50.5 80C51.8807 80 53 78.8807 53 77.5V22.5Z" fill="black"/>
<path d="M63 40C63 38.6193 61.8807 37.5 60.5 37.5C59.1193 37.5 58 38.6193 58 40V60C58 61.3807 59.1193 62.5 60.5 62.5C61.8807 62.5 63 61.3807 63 60V40Z" fill="black"/>
<path d="M73 32.5C73 31.1193 71.8807 30 70.5 30C69.1193 30 68 31.1193 68 32.5V67.5C68 68.8807 69.1193 70 70.5 70C71.8807 70 73 68.8807 73 67.5V32.5Z" fill="black"/>
<path d="M83 37.5C83 36.1193 81.8807 35 80.5 35C79.1193 35 78 36.1193 78 37.5V62.5C78 63.8807 79.1193 65 80.5 65C81.8807 65 83 63.8807 83 62.5V37.5Z" fill="black"/>
</svg>
